<svg version="1.1" xmlns="http://www.w3.org/2000/svg" width="104" height="60">
<path d="M0 0 C34.32 0 68.64 0 104 0 C104 19.8 104 39.6 104 60 C69.68 60 35.36 60 0 60 C0 40.2 0 20.4 0 0 Z " fill="#F7FAF6" transform="translate(0,0)"/>
<path d="M0 0 C9.9 0 19.8 0 30 0 C30 16.17 30 32.34 30 49 C5.91 49 -18.18 49 -43 49 C-44.71662125 30.11716621 -44.71662125 30.11716621 -41.59375 26.265625 C-39.9375 24.875 -39.9375 24.875 -37 23 C-35.47554171 29.27788731 -35.93995787 35.57549184 -36 42 C-31.38 42 -26.76 42 -22 42 C-22 32.1 -22 22.2 -22 12 C-19.36 11.01 -16.72 10.02 -14 9 C-14 12.96 -14 16.92 -14 21 C-9.38 21 -4.76 21 0 21 C0 14.07 0 7.14 0 0 Z " fill="#D6973E" transform="translate(69,8)"/>
<path d="M0 0 C17.16 0 34.32 0 52 0 C52 9 52 9 50.25 11.0625 C48 12 48 12 44 12 C44 21.9 44 31.8 44 42 C39.38 42 34.76 42 30 42 C29.40394637 35.96495699 28.86527221 30.06275051 29 24 C25.12047456 26.62948691 25.12047456 26.62948691 23.1875 30.75 C23.0946875 31.86375 23.0946875 31.86375 23 33 C22.67 33 22.34 33 22 33 C22 31.35 22 29.7 22 28 C14.74 28 7.48 28 0 28 C0 18.76 0 9.52 0 0 Z " fill="#F1FBF7" transform="translate(3,8)"/>
<path d="M0 0 C17.16 0 34.32 0 52 0 C52 9 52 9 50.25 11.0625 C48 12 48 12 44 12 C44 10.68 44 9.36 44 8 C32.12 8 20.24 8 8 8 C8 12.29 8 16.58 8 21 C15.26 21 22.52 21 30 21 C29 24 29 24 26.5 25.875 C23.68075768 28.27135597 23.30026863 29.3967764 23 33 C22.67 33 22.34 33 22 33 C22 31.35 22 29.7 22 28 C14.74 28 7.48 28 0 28 C0 18.76 0 9.52 0 0 Z " fill="#0BC6E9" transform="translate(3,8)"/>
<path d="M0 0 C3.96 0 7.92 0 12 0 C12 10.89 12 21.78 12 33 C0.78 33 -10.44 33 -22 33 C-22 29.04 -22 25.08 -22 21 C-14.74 21 -7.48 21 0 21 C0 14.07 0 7.14 0 0 Z " fill="#FEFEFD" transform="translate(78,16)"/>
<path d="M0 0 C0.10884119 1.41493551 0.18597617 2.83232943 0.25 4.25 C0.29640625 5.03890625 0.3428125 5.8278125 0.390625 6.640625 C0 9 0 9 -1.9375 10.89453125 C-4.64357357 13.65698136 -4.77588816 15.64021532 -5.25 19.4375 C-5.39953125 20.54996094 -5.5490625 21.66242187 -5.703125 22.80859375 C-5.95972074 25.56699796 -6.06206485 28.23294197 -6 31 C-6.66 31.33 -7.32 31.66 -8 32 C-8 22.43 -8 12.86 -8 3 C-1 0 -1 0 0 0 Z " fill="#9FC054" transform="translate(55,17)"/>
<path d="M0 0 C0.33 0.99 0.66 1.98 1 3 C2.65 3 4.3 3 6 3 C5.35546875 3.67417969 4.7109375 4.34835938 4.046875 5.04296875 C1.54395622 8.65882661 1.41291296 10.95457838 1.25 15.3125 C1.19328125 16.56675781 1.1365625 17.82101563 1.078125 19.11328125 C1.05234375 20.06589844 1.0265625 21.01851562 1 22 C0.67 22 0.34 22 0 22 C-0.33 18.04 -0.66 14.08 -1 10 C-2.32 11.32 -3.64 12.64 -5 14 C-5.29557392 8.97524332 -5.0282379 6.07647409 -2 2 C-1.34 1.34 -0.68 0.68 0 0 Z " fill="#D2B430" transform="translate(54,26)"/>
<path d="M0 0 C0.375 2.125 0.375 2.125 0 5 C-1.74322351 7.29739641 -3.69638037 9.26333339 -6 11 C-6.66 11 -7.32 11 -8 11 C-8 8.36 -8 5.72 -8 3 C-1.125 0 -1.125 0 0 0 Z " fill="#55BC94" transform="translate(55,17)"/>
<path d="M0 0 C0 2.70202608 -0.27868213 4.92813049 -0.8125 7.5625 C-0.96332031 8.34753906 -1.11414062 9.13257813 -1.26953125 9.94140625 C-2 12 -2 12 -5 14 C-5.29557392 8.97524332 -5.0282379 6.07647409 -2 2 C-1.34 1.34 -0.68 0.68 0 0 Z " fill="#B6B83C" transform="translate(54,26)"/>
<path d="M0 0 C0.33 1.32 0.66 2.64 1 4 C-2.06117568 6.62386487 -2.73173127 7 -7 7 C-7 5.68 -7 4.36 -7 3 C-4.69 2.01 -2.38 1.02 0 0 Z " fill="#2EC1C2" transform="translate(54,13)"/>
<path d="M0 0 C-1 3 -1 3 -3.5 4.875 C-6.31924232 7.27135597 -6.69973137 8.3967764 -7 12 C-7.33 12 -7.66 12 -8 12 C-8.875 9.375 -8.875 9.375 -9 6 C-6.59764539 2.42065286 -4.40485337 0 0 0 Z " fill="#38D2AF" transform="translate(33,29)"/>
<path d="M0 0 C0 3 0 3 -2.375 5.6875 C-5 8 -5 8 -7 8 C-7 6.68 -7 5.36 -7 4 C-5.824375 3.566875 -5.824375 3.566875 -4.625 3.125 C-1.90328368 2.15087746 -1.90328368 2.15087746 0 0 Z " fill="#77BB73" transform="translate(54,20)"/>
</svg>
